# xmcd
#
# Track frame offsets:
#	150
#	15257
#	33593
#	46993
#	62782
#	82422
#	95471
#	110998
#	123614
#
# Disc length: 1875 seconds
#
# Revision: 0
# Processed by: cddbd v1.5.1PL2 Copyright (c) Steve Scherf et al.
# Submitted via: dBpowerAMP V4.0
#
DISCID=7c075109
DTITLE=Slidin' Slim - One Man,a Whole Lotta Blues
DYEAR=2005
DGENRE=Blues
TTITLE0=Doggone Mean
TTITLE1=Five Long Letters
TTITLE2=Lovin' Mood
TTITLE3=Brand New Face
TTITLE4=Driftin' Blues
TTITLE5=Me and the Devil Blues
TTITLE6=Cross Road Blues
TTITLE7=Married Woman Blues
TTITLE8=Take It From Me
EXTD=P&C No Budget Records/CD Baby
EXTT0=
EXTT1=
EXTT2=
EXTT3=
EXTT4=
EXTT5=
EXTT6=
EXTT7=
EXTT8=
PLAYORDER=
